<svg width="1008" height="338" viewBox="0 0 1008 338" fill="none" xmlns="http://www.w3.org/2000/svg">
<mask id="mask0_209_910" style="mask-type:alpha" maskUnits="userSpaceOnUse" x="-154" y="4" width="1128" height="652">
<path fill-rule="evenodd" clip-rule="evenodd" d="M938.728 372.541C1045.11 -105.426 898.422 -25.6582 658.447 104.834C467.425 208.708 217.295 344.722 -11.343 257.151C-174.617 278.826 -164.141 300.622 -137.893 355.229C-125.572 380.864 -109.775 413.729 -106.845 457.207C-103.66 504.478 -102.636 503.413 -93.0868 493.485L-93.0856 493.484C-91.4615 491.796 -89.5909 489.851 -87.4212 487.844C-84.9658 522.315 -83.68 520.999 -75.6475 512.781C-71.2473 508.279 -64.8224 501.705 -55.0717 497.808C-52.6885 532.043 -51.6095 530.94 -43.9808 523.14C-39.37 518.426 -32.3667 511.265 -21.2367 507.982C-19.0386 539.517 -18.0337 538.489 -10.9852 531.285C-5.73376 525.917 2.87229 517.12 17.8257 515.806C24.7126 520.432 32.0766 525.95 39.9528 532.488C41.4175 547.444 42.9627 545.863 48.1101 540.595C48.3025 540.398 48.4999 540.196 48.7025 539.99C55.804 546.267 63.2943 553.333 71.1955 561.271C72.8744 585.777 73.5387 585.098 78.804 579.713C80.2263 578.259 81.9843 576.461 84.1886 574.724C94.26 585.452 104.947 597.512 116.29 611.046L120.65 611.778C125.03 612.513 129.497 613.263 134.047 614.02L134.337 614.366L138.388 615.045L138.395 615.046C152.29 617.376 167.117 619.863 182.792 622.252C188.164 628.092 193.805 634.52 199.73 641.586L202.477 642.047C277.117 654.566 391.421 673.737 517.37 614.049C648.77 586.415 793.32 518.587 938.728 372.541ZM75.4464 578.177C74.9616 575.376 74.5533 570.918 74.0701 564.179C76.8802 567.041 79.7413 570.012 82.6543 573.095C80.8435 574.488 79.3349 575.906 78.0833 577.15C77.5297 577.701 77.0616 578.18 76.6393 578.612L76.637 578.615C76.3102 578.949 76.0109 579.256 75.7207 579.545C75.631 579.164 75.5388 578.711 75.4464 578.177ZM73.8136 560.499C77.3405 564.051 80.9472 567.773 84.6356 571.673C85.5948 571.033 86.6253 570.414 87.732 569.838C88.4983 569.439 89.2999 569.061 90.1383 568.711C84.1528 562.135 78.3573 555.978 72.7456 550.216C73.1894 553.199 73.529 556.28 73.7434 559.462L73.8136 560.499ZM117.998 609.266C106.762 595.88 96.1598 583.931 86.1539 573.283C87.7623 572.192 89.5742 571.175 91.6204 570.344C101.233 580.961 111.332 592.652 121.943 605.512C123.56 605.789 125.188 606.068 126.826 606.35L127.662 606.493C129.103 608.174 130.557 609.882 132.022 611.616C128.368 611.006 124.768 610.402 121.223 609.807L117.998 609.266ZM108.542 581.407C104.692 577.007 100.92 572.781 97.2236 568.723C101.264 567.993 106.008 568.02 111.591 569.303C120.631 578.185 130.314 588.421 140.689 600.184C135.567 599.333 130.547 598.49 125.63 597.664L125.611 597.661L125.352 597.618L125.326 597.613L122.821 597.192C117.923 591.625 113.165 586.368 108.542 581.407ZM144.49 600.814C134.502 589.418 125.135 579.41 116.348 570.642C128.613 574.705 144.48 584.486 165.092 604.145C158.06 603.039 151.191 601.922 144.49 600.814ZM127.754 573.137C139.091 578.891 152.721 588.799 169.201 604.788C175.509 605.767 181.944 606.736 188.502 607.679C174.078 590.966 161.099 577.474 149.416 566.655C148.092 567.8 146.984 568.931 146.05 569.885C141.923 574.101 141.166 574.875 139.937 558.211C129.374 549.19 119.974 542.505 111.601 537.665C108.886 540.352 107.626 540.856 106.666 534.961C89.1572 525.912 76.4853 525.308 67.2259 527.954C67.4916 528.723 67.7527 529.5 68.0086 530.286C81.025 538.632 95.9927 550.671 113.246 567.575C117.67 568.664 122.489 570.466 127.754 573.137ZM142.799 560.689C143.086 564.245 143.355 566.787 143.659 568.544C143.669 568.602 143.679 568.66 143.689 568.716C143.703 568.793 143.717 568.869 143.731 568.942L143.884 568.786C144.238 568.424 144.632 568.02 145.108 567.548C145.866 566.795 146.739 565.963 147.742 565.115C146.068 563.584 144.42 562.11 142.799 560.689ZM149.629 563.63C147.214 561.426 144.853 559.336 142.546 557.354C142.446 555.984 142.343 554.497 142.234 552.885C141.524 542.346 139.179 533.138 136.278 525.058C154.37 524.849 184.082 539.284 233.65 598.401L236.397 598.861C316.848 612.355 443.38 633.577 580.906 555.447C558.394 572.325 536.106 585.678 514.255 596.161C490.522 602.398 467.214 607.138 444.415 610.637C371.883 621.766 304.395 620.348 244.553 614.516C220.183 586.362 201.639 571.339 187.36 564.1C179.691 560.213 173.104 558.493 167.392 558.29C161.625 558.084 156.984 559.431 153.306 561.344C151.949 562.05 150.727 562.83 149.629 563.63ZM151.288 565.153C163.495 576.438 177.068 590.589 192.179 608.203C207.795 610.409 224.092 612.459 241.011 614.165C186.492 551.692 162.489 556.875 151.288 565.153ZM242.938 616.386C226.044 614.721 209.768 612.709 194.17 610.533C195.253 611.806 196.344 613.097 197.443 614.405L199.661 614.778C213.023 617.021 227.403 619.435 242.695 621.693C246.937 622.174 251.216 622.637 255.532 623.079C253.588 622.755 251.674 622.434 249.79 622.119L247.485 621.733C245.947 619.9 244.431 618.118 242.938 616.386ZM331.6 630.398C328.82 630.236 326.067 630.051 323.342 629.846C331.136 630.123 339.021 630.306 346.993 630.382C343.88 630.474 340.781 630.547 337.694 630.601C335.654 630.543 333.622 630.475 331.6 630.398ZM447.767 620.273C443.106 621.088 438.466 621.849 433.847 622.557C419.893 624.698 406.13 626.364 392.577 627.617C355.412 629.251 319.855 628.278 286.253 625.795C273.375 624.003 261.372 621.992 250.362 620.148L249.192 619.952C248.272 618.859 247.359 617.784 246.455 616.727C321.981 623.915 409.651 623.987 504.181 600.806C484.96 609.316 466.107 615.654 447.767 620.273ZM380.712 632.483C383.43 632.324 386.166 632.136 388.919 631.916C408.353 630.806 428.406 628.655 448.973 625.146C468.446 622.895 488.283 619.849 508.439 615.869C470.763 632.846 434.24 642.797 399.643 648.102C321.945 660.016 253.644 648.561 203.05 640.076L201.438 639.806C196.288 633.681 191.349 628.033 186.61 622.829C240.803 630.957 304.889 637.7 375.522 632.848C377.248 632.734 378.978 632.612 380.712 632.483ZM470.24 615.949C485.028 611.194 500.088 605.272 515.349 597.966C534.436 592.94 553.791 586.951 573.372 579.868C569.687 582.312 566.008 584.68 562.337 586.975C542.599 595.285 523.107 602.213 503.921 607.943C492.593 610.951 481.363 613.61 470.24 615.949ZM524.71 593.322C543.083 588.176 561.7 582.119 580.524 575.034C605.791 557.639 631.341 536.635 656.962 511.366C657.832 507.536 658.671 503.771 659.481 500.07C638.209 518.145 617.038 533.477 596.09 546.439C572.028 565.912 548.151 581.283 524.71 593.322ZM609.312 535.336C626.187 524.025 643.196 511.119 660.274 496.421C671.413 444.834 676.64 406.008 676.765 377.501C676.902 346.084 670.824 327.68 660.285 318.407C655.109 313.853 648.812 311.462 641.403 310.806C633.912 310.142 625.147 311.241 615.126 313.887C595.04 319.191 570.71 330.481 542.982 344.792C530.471 351.248 517.294 358.307 503.553 365.669L503.551 365.67L503.545 365.673C456.635 390.803 403.148 419.456 347.145 439.703C300.442 456.588 251.71 467.736 203.272 466.138C305.991 493.559 415.909 434.728 500.998 389.186C614.341 328.522 683.625 291.439 633.146 513.214C625.193 521.065 617.245 528.43 609.312 535.336ZM194.949 463.721C302.916 470.733 413.636 411.423 501.927 364.127C633.79 293.491 715.629 249.652 663.567 493.566C672.657 485.625 681.765 477.173 690.883 468.181C704.302 409.066 710.549 365.512 710.685 334.316C710.822 302.899 704.744 284.494 694.206 275.222C689.03 270.667 682.732 268.277 675.324 267.62C667.832 266.956 659.067 268.056 649.046 270.702C628.96 276.005 604.631 287.296 576.902 301.606C564.39 308.064 551.21 315.124 537.466 322.487C490.556 347.617 437.069 376.27 381.066 396.517C308.823 422.636 231.724 435.029 158.371 407.749C125.11 412.158 105.268 416.52 94.084 421.587C88.5189 424.109 85.2912 426.721 83.5469 429.474C81.8002 432.231 81.3872 435.371 82.0404 439.148C82.698 442.95 84.4092 447.255 86.7334 452.264C87.1102 453.076 87.5013 453.903 87.9049 454.746C97.9808 452.732 110.206 450.792 124.947 448.851C141.364 455.021 157.98 459.173 174.701 461.603C177.889 461.138 181.241 460.675 184.764 460.211C188.149 461.482 191.545 462.65 194.949 463.721ZM182.174 462.575C182.865 462.481 183.563 462.388 184.269 462.294C184.92 462.536 185.571 462.773 186.223 463.007C184.873 462.874 183.523 462.73 182.174 462.575ZM174.597 463.642C181.125 464.578 187.667 465.254 194.218 465.689C252.868 484.003 313.963 473.547 371.328 452.824C418.346 435.838 463.259 411.798 502.615 390.733C514.139 384.564 525.186 378.651 535.67 373.245C558.932 361.25 579.297 351.811 596.084 347.381C604.456 345.172 611.738 344.266 617.934 344.814C624.047 345.355 629.235 347.321 633.509 351.078C642.242 358.756 647.347 374.073 647.23 400.397C647.115 426.501 641.882 462.956 630.637 512.451C618.494 524.411 606.371 535.23 594.301 545.005C538.232 579.67 483.862 597.204 433.563 604.916C355.866 616.831 287.564 605.376 236.97 596.891L235.358 596.62C203.513 558.742 179.696 539.097 161.674 529.952C152.581 525.337 144.814 523.319 138.122 523.079C137.241 523.048 136.383 523.047 135.547 523.075C134.236 519.61 132.835 516.358 131.435 513.304C130.223 510.66 129.011 508.161 127.862 505.806L127.478 505.018C126.469 502.952 125.519 501.004 124.657 499.15C122.709 494.955 121.287 491.373 120.741 488.221C120.2 485.095 120.549 482.533 121.966 480.299C123.38 478.069 126.013 475.924 130.63 473.834C138.786 470.141 152.528 466.881 174.597 463.642ZM168.044 462.614C153.412 460.121 138.859 456.293 124.45 450.934C110.245 452.817 98.4872 454.692 88.8063 456.616C89.2236 457.477 89.6518 458.355 90.0888 459.251L90.0985 459.271L90.1021 459.278L90.5573 460.212C91.927 463.022 93.3705 466 94.8136 469.152C100.592 481.771 106.378 497.191 107.664 516.277C108.231 524.695 108.671 530.267 109.178 533.793C109.822 534.133 110.472 534.484 111.127 534.847C111.396 534.573 111.686 534.281 112.004 533.965C114.28 531.703 117.405 528.863 121.652 526.652C124.765 525.033 128.462 523.76 132.824 523.271C130.321 516.723 127.495 510.934 124.977 505.776C113.591 482.454 108.508 472.041 168.044 462.614ZM133.545 525.205C123.218 526.214 117.067 532.104 113.215 536.027C121.144 540.605 129.937 546.784 139.704 554.947C139.662 554.339 139.62 553.711 139.576 553.064C138.864 542.501 136.484 533.29 133.545 525.205ZM146.596 603.227C153.439 604.352 160.456 605.485 167.642 606.605C169.423 608.341 171.238 610.149 173.088 612.031C165.578 610.83 158.234 609.617 151.064 608.411C149.561 606.653 148.072 604.925 146.596 603.227ZM171.695 607.232C173.454 608.974 175.245 610.784 177.069 612.664C182.978 613.598 188.989 614.522 195.098 615.427C193.554 613.589 192.025 611.786 190.513 610.018C184.122 609.111 177.849 608.178 171.695 607.232ZM153.117 610.823C160.391 612.04 167.843 613.264 175.465 614.472C176.473 615.516 177.491 616.581 178.52 617.669C171.571 616.533 164.83 615.403 158.307 614.31L158.304 614.309L155.691 613.872C154.829 612.846 153.971 611.829 153.117 610.823ZM179.404 615.093C180.406 616.143 181.417 617.214 182.438 618.307C200.931 621.299 220.851 624.295 242.02 626.738C259.935 628.412 278.536 629.671 297.752 630.291C278.116 628.601 259.523 626.232 242.132 623.664C220.169 621.172 199.221 618.195 179.404 615.093ZM936.213 371.791C794.315 514.17 653.422 581.781 525.016 610.334C533.033 606.345 541.094 602.031 549.193 597.371C555.555 594.89 561.946 592.252 568.364 589.451C645.048 560.593 725.146 514.443 806.006 442.909C825.672 426.378 845.395 408.406 865.135 388.88C962.581 -40.3681 828.761 31.3902 609.844 148.78C435.584 242.223 207.404 364.58 -0.971891 286.168C-118.591 301.664 -137.342 317.126 -128.256 347.098C-131.442 358.663 -124.526 372.849 -115.532 391.297C-104.552 413.818 -90.4754 442.691 -87.9005 480.905C-87.806 482.308 -87.7136 483.663 -87.6229 484.971C-89.5455 486.641 -91.2463 488.291 -92.7515 489.812C-93.6831 490.753 -94.5058 491.609 -95.2594 492.393L-95.2602 492.394L-95.2614 492.395L-95.2667 492.401C-96.1899 493.361 -97.0098 494.214 -97.7987 494.984C-98.489 495.658 -99.0639 496.174 -99.5493 496.546L-99.5997 496.584C-100.096 495.622 -100.611 493.871 -101.108 490.97C-102.176 484.731 -103.039 474.067 -104.187 457.027C-106.496 422.753 -116.745 395.039 -127.006 372.303C-129.57 366.623 -132.135 361.251 -134.574 356.173L-135.386 354.484L-135.386 354.483C-137.529 350.025 -139.558 345.804 -141.397 341.783C-145.544 332.714 -148.657 324.801 -149.863 317.756C-151.065 310.734 -150.347 304.713 -147.009 299.351C-143.675 293.996 -137.579 289.061 -127.448 284.404C-107.131 275.063 -71.3303 267.163 -11.8505 259.236C117.941 308.654 254.428 286.629 382.697 239.611C481.999 203.209 576.784 151.667 660.083 106.37C684.522 93.0799 707.972 80.3278 730.258 68.6535C779.5 42.8585 822.928 22.3894 858.91 12.7684C876.879 7.96386 892.788 5.92266 906.523 7.17545C920.173 8.42054 931.826 12.93 941.366 21.466C960.634 38.706 971.441 72.5058 971.26 129.296C971.079 185.866 960.013 264.777 936.213 371.791ZM516.358 612.205C522.795 609.148 529.264 605.882 535.76 602.397C516.805 609.19 498.132 614.627 479.809 618.916C491.867 617.012 504.054 614.786 516.358 612.205ZM599.261 569.907C591.04 574.052 582.854 577.944 574.708 581.597C577.132 579.993 579.559 578.356 581.988 576.686C587.728 574.522 593.486 572.264 599.261 569.907ZM621.765 557.966C610.78 562.932 599.853 567.53 588.993 571.783C612.332 555.155 635.88 535.437 659.472 512.129C660.625 507.056 661.726 502.098 662.775 497.25C672.964 488.461 683.174 479.039 693.392 468.943C753.552 204.322 670.96 248.564 535.848 320.941C428.296 378.554 287.466 453.994 158.868 405.666C71.9579 417.109 72.5127 428.516 85.2961 455.279C35.384 465.712 41.5145 478.28 53.6778 503.216C57.0257 510.08 60.8307 517.88 64.0498 526.831C63.7041 526.955 63.3631 527.082 63.0269 527.214C60.3411 525.624 57.7431 524.198 55.2297 522.923C52.1289 521.35 49.1474 520.003 46.2796 518.863C44.5841 517.434 42.9108 516.05 41.2593 514.71C39.5367 491.998 32.6103 473.58 25.6852 458.447C23.9254 454.602 22.1647 450.967 20.4926 447.534L19.937 446.394C18.4678 443.38 17.0792 440.532 15.8212 437.819C12.9818 431.696 10.8753 426.401 10.0641 421.709C9.2574 417.043 9.75856 413.113 11.9571 409.64C14.153 406.172 -13.503 412.702 -6.63858 409.59C7.14364 403.341 57.4037 405.789 98.1166 400.397C187.485 433.722 287.274 401.072 375.444 369.177C443.756 344.466 508.987 309.5 566.246 278.807C583.032 269.809 599.133 261.179 614.425 253.282C648.271 235.803 678.032 221.978 702.637 215.478C714.918 212.234 725.714 210.87 734.981 211.693C744.165 212.508 751.982 215.478 758.394 221.124C771.403 232.579 778.815 255.208 778.649 293.594C778.485 331.759 770.847 385.028 754.449 457.306C731.636 479.828 708.865 499.582 686.24 516.877C664.589 532.469 643.074 546.092 621.765 557.966ZM60.1636 464.773C66.133 462.068 74.5688 459.564 86.195 457.147C86.6482 458.083 87.1135 459.037 87.5881 460.01L87.5982 460.031C94.5155 474.212 103.384 492.393 105.005 516.456C105.486 523.584 105.878 528.727 106.303 532.325C95.7857 527.149 86.799 524.888 79.0629 524.611C74.3699 524.443 70.2159 525.007 66.5481 526.036C64.7762 521.131 62.8342 516.576 60.8932 512.337C59.4501 509.186 58.0066 506.207 56.6369 503.397L56.1817 502.464L56.1781 502.456C54.9759 499.992 53.8411 497.665 52.813 495.449C50.4888 490.44 48.7776 486.135 48.12 482.333C47.4668 478.557 47.8798 475.417 49.6265 472.66C51.3708 469.907 54.5985 467.294 60.1636 464.773ZM62.6772 529.61C63.6446 530.196 64.624 530.804 65.6153 531.433C66.3064 533.59 66.957 535.811 67.5541 538.097C64.9847 535.625 62.4593 533.247 59.977 530.959C60.8358 530.483 61.7351 530.031 62.6772 529.61ZM95.6388 566.989C87.0594 557.626 78.8948 549.176 71.1232 541.562C70.5093 538.847 69.8165 536.222 69.0642 533.681C80.6903 541.45 93.904 552.182 108.934 566.713C107.299 566.466 105.723 566.319 104.201 566.265C101.068 566.153 98.2208 566.432 95.6388 566.989ZM61.4184 535.548C63.7744 537.764 66.1694 540.062 68.604 542.443L68.6494 542.648C66.2039 540.206 63.7937 537.84 61.4184 535.548ZM67.3842 544.776C68.0883 545.482 68.7953 546.194 69.5054 546.913C70.1275 550.343 70.6142 553.909 70.9304 557.617C63.7468 550.486 56.9 544.073 50.3728 538.319C51.6378 537.085 53.0739 535.768 54.7114 534.478C58.7747 537.594 62.9968 541.019 67.3842 544.776ZM43.4284 538.793C43.2426 537.719 43.0661 536.448 42.8932 534.957C44.2344 536.095 45.5901 537.262 46.9604 538.459C46.5951 538.829 46.2586 539.173 45.9418 539.498C45.3185 540.137 44.7716 540.697 44.2318 541.215C44.1575 541.287 44.0857 541.355 44.0162 541.42C43.8262 540.795 43.6267 539.939 43.4284 538.793ZM42.5438 531.602C44.5431 533.269 46.5742 535 48.6376 536.798C49.8672 535.613 51.2723 534.342 52.8759 533.083C49.1207 530.256 45.5036 527.696 42.0191 525.383C42.1982 527.713 42.3711 529.778 42.5438 531.602ZM638.942 552.258C636.273 553.917 633.606 555.544 630.942 557.14C635.915 554.468 640.899 551.709 645.893 548.861C643.573 550.01 641.257 551.142 638.942 552.258ZM583.903 580.042C591.115 576.59 598.358 572.923 605.631 569.032C594.049 575.004 582.533 580.475 571.093 585.481C575.352 583.727 579.623 581.915 583.903 580.042ZM676.554 530.304C669.419 534.293 662.303 538.116 655.208 541.78C666.123 534.498 677.082 526.674 688.072 518.274C718.917 496.059 750.023 469.875 781.186 439.1C863.269 78.2496 750.592 138.584 566.263 237.286C419.535 315.853 227.407 418.731 51.9707 352.834C-73.3844 369.336 -65.3613 385.778 -45.2602 426.971C-38.8191 440.171 -31.1378 455.912 -26.2074 475.011C-34.2617 472.38 -41.5445 471.098 -48.1469 470.851C-50.7869 470.752 -53.3053 470.819 -55.7074 471.027C-59.3588 452.964 -65.4717 437.494 -71.588 424.139C-73.7117 419.501 -75.8368 415.117 -77.8562 410.974L-78.5278 409.597L-78.529 409.595L-78.5314 409.59C-80.3042 405.956 -81.9815 402.517 -83.5012 399.242C-86.9324 391.848 -89.4926 385.425 -90.4797 379.718C-91.4623 374.037 -90.8594 369.206 -88.1418 364.917C-85.4267 360.632 -80.4471 356.648 -72.0877 352.86C-55.3162 345.262 -109.283 347.018 -60 340.5C47.7805 380.713 240.657 345.545 347.145 307.049C429.614 277.236 512.42 243.859 581.583 206.813L581.586 206.812L581.605 206.801L581.618 206.794C601.89 195.936 621.339 185.519 639.818 175.983C680.701 154.885 716.709 138.165 746.512 130.297C761.392 126.368 774.526 124.702 785.835 125.704C797.061 126.699 806.625 130.332 814.457 137.222C830.305 151.166 839.248 178.613 839.046 224.951C838.844 271.068 829.601 335.422 809.771 422.722C765.059 466.838 720.48 502.168 676.554 530.304ZM778.676 438.338C766.509 450.338 754.352 461.635 742.218 472.267C747.13 467.659 752.044 462.927 756.959 458.068C830.385 134.813 722.354 191.847 557.418 280.254C426.128 350.627 244.894 460.478 87.9049 401.433C-24.2651 416.208 -0.557014 410.242 17.4328 447.146C25.523 463.742 35.7994 484.822 38.3901 512.408C26.0405 502.617 14.9403 495.321 4.94902 490.023C0.704231 487.394 -3.37292 485.081 -7.28987 483.057C-12.9024 480.157 -18.2051 477.84 -23.2184 476.037C-26.6338 462.289 -31.484 450.26 -36.3354 439.669C-38.3007 435.379 -40.2672 431.323 -42.1354 427.492L-42.7565 426.218C-44.3979 422.855 -45.9503 419.673 -47.3567 416.643C-50.5302 409.806 -52.8928 403.878 -53.8031 398.616C-54.709 393.38 -54.1502 388.943 -51.6584 385.012C-49.1691 381.085 -44.5969 377.421 -36.8872 373.929C-21.4149 366.921 6.41312 358.861 51.9707 352.834C151.744 390.024 256.184 375.304 354.709 339.697C431.024 312.116 503.892 273.096 567.881 238.832C586.645 228.784 604.645 219.145 621.745 210.324C659.569 190.81 692.862 175.357 720.405 168.087C734.155 164.458 746.273 162.924 756.695 163.847C767.033 164.762 775.838 168.105 783.051 174.449C797.664 187.302 805.94 212.637 805.752 255.49C805.564 298.123 797.017 357.62 778.676 438.338ZM32.1933 516.751C34.3184 517.183 36.5354 517.751 38.8486 518.469C38.9027 519.256 38.956 520.021 39.0085 520.766C36.6779 519.318 34.4067 517.982 32.1933 516.751ZM50.2945 528.332C47.3832 526.243 44.5549 524.315 41.807 522.539C41.7778 522.138 41.7484 521.73 41.7188 521.314L41.6676 520.593C44.4864 523.056 47.3616 525.634 50.2945 528.332ZM25.7298 515.813C29.9792 517.961 34.4676 520.523 39.2094 523.552C39.3619 525.622 39.5094 527.507 39.6554 529.22C33.3262 524.06 27.3226 519.555 21.626 515.64C22.9484 515.638 24.3158 515.694 25.7298 515.813ZM59.3294 528.894C59.7102 528.696 60.0983 528.502 60.4938 528.313C57.5293 526.584 54.6792 525.062 51.939 523.729C54.0333 525.565 56.1601 527.468 58.3199 529.439C58.6504 529.254 58.9869 529.072 59.3294 528.894ZM-25.6 477.439C-37.2056 473.416 -47.0124 472.306 -55.3207 472.999C-54.8428 475.513 -54.4132 478.076 -54.0385 480.691C-48.5589 478.756 -42.1628 477.604 -34.7147 477.872C-31.7147 477.979 -28.563 478.317 -25.2495 478.917C-25.3645 478.423 -25.4813 477.93 -25.6 477.439ZM-22.5212 478.956C-22.5545 478.811 -22.5879 478.666 -22.6214 478.522C-20.6747 479.261 -18.6793 480.081 -16.6338 480.985C-18.6065 480.401 -20.5279 479.905 -22.3995 479.491L-22.4457 479.287L-22.5212 478.956ZM-24.7599 481.093C-36.6964 478.716 -46.1778 479.944 -53.7529 482.774C-53.3028 486.217 -52.9487 489.747 -52.7048 493.366L-52.6102 494.764C-47.6513 493.234 -41.9698 492.367 -35.4724 492.6C-31.4214 492.745 -27.0893 493.317 -22.4504 494.402C-23.0461 489.8 -23.8293 485.367 -24.7599 481.093ZM-19.6782 495.102C-20.248 490.475 -21.0061 486.017 -21.9132 481.718C-14.4664 483.503 -6.10755 486.661 3.28433 491.634C13.0969 497.717 23.8434 505.527 35.6182 515.411C32.5157 514.649 29.5668 514.15 26.7616 513.882C19.3838 510.194 12.6424 507.698 6.4703 506.169C4.65669 505.156 2.87914 504.208 1.13683 503.324C-6.39904 499.497 -13.317 496.826 -19.6782 495.102ZM-22.1826 496.592C-34.6702 493.469 -44.5715 494.264 -52.4665 496.86C-51.6443 508.752 -50.9868 516.401 -50.185 521.034C-49.8549 522.941 -49.5184 524.211 -49.1995 525.015C-48.9163 524.775 -48.5967 524.483 -48.2342 524.135C-47.5803 523.508 -46.909 522.82 -46.1485 522.042C-45.5218 521.401 -44.8346 520.697 -44.0467 519.914C-40.7148 516.603 -36.2084 512.519 -30.1239 509.353C-27.5047 507.99 -24.5988 506.8 -21.3797 505.91C-21.4243 505.258 -21.4694 504.593 -21.5151 503.914C-21.6827 501.428 -21.907 498.988 -22.1826 496.592ZM-18.7527 505.268C-18.787 504.765 -18.8216 504.254 -18.8566 503.735C-19.0026 501.567 -19.1914 499.435 -19.4194 497.336C-13.7667 498.963 -7.60658 501.375 -0.889987 504.754C-2.87034 504.487 -4.78562 504.325 -6.63858 504.259C-11.0715 504.1 -15.0985 504.49 -18.7527 505.268ZM-18.6131 507.3C-17.8633 518.109 -17.2604 525.077 -16.5273 529.312C-16.2555 530.882 -15.9801 531.976 -15.7191 532.712C-15.5233 532.538 -15.3093 532.34 -15.075 532.115C-14.4709 531.535 -13.8539 530.904 -13.1534 530.187L-13.1525 530.186C-12.5734 529.594 -11.9363 528.942 -11.203 528.214C-8.11664 525.147 -3.93113 521.354 1.72608 518.411C5.54234 516.425 10.0142 514.834 15.2341 514.093C11.7524 511.828 8.39586 509.795 5.15974 507.977C-4.26758 505.697 -12.0936 505.83 -18.6131 507.3ZM21.2099 513.642C20.3918 513.652 19.5893 513.681 18.8023 513.73C17.2378 512.69 15.6971 511.695 14.1797 510.744C16.4425 511.577 18.7849 512.54 21.2099 513.642ZM142.812 602.603C136.712 601.593 130.754 600.592 124.944 599.616C126.403 601.288 127.875 602.987 129.359 604.715C135.207 605.718 141.187 606.743 147.297 607.776C145.788 606.02 144.293 604.296 142.812 602.603ZM149.367 610.193C143.26 609.164 137.282 608.143 131.436 607.14C132.863 608.814 134.302 610.513 135.752 612.237C141.558 613.202 147.496 614.178 153.562 615.15C152.152 613.472 150.753 611.819 149.367 610.193ZM123.666 603.738C114.801 593.01 106.29 583.094 98.1166 573.933C100.803 576.709 103.539 579.589 106.325 582.579C110.847 587.747 115.479 593.159 120.223 598.823L121.142 598.977C122.606 600.645 124.082 602.341 125.572 604.065L123.666 603.738ZM621.255 564.622C640.078 554.964 659.06 544.084 678.161 531.852C698.197 520.649 718.379 508.15 738.668 494.229C699.043 523.049 659.799 546.184 621.255 564.622ZM804.026 441.631C771.719 468.784 739.574 492.028 707.754 511.866C742.366 487.259 777.29 458.05 812.281 423.484C900.997 33.3166 779.205 98.5507 579.965 205.267C421.367 290.215 111.776 405.256 -77.8562 334C-213.353 351.84 -102.76 365.81 -81.0313 410.35C-73.0794 426.651 -63.3789 446.536 -58.3563 471.32C-65.2454 472.246 -71.1215 474.347 -76.1207 476.988C-79.1895 478.609 -81.923 480.431 -84.3585 482.3C-84.7403 477.721 -85.134 472.234 -85.5742 465.701C-87.6496 434.9 -96.9773 410.005 -106.316 389.59C-108.649 384.49 -110.984 379.668 -113.203 375.11L-113.941 373.595C-115.891 369.594 -117.736 365.807 -119.408 362.2C-121.967 356.679 -124.089 351.643 -125.529 347.008C-125.036 345.37 -124.324 343.804 -123.37 342.299C-120.425 337.647 -115.03 333.335 -106.008 329.245C-87.9115 321.041 -55.9983 314.07 -2.91481 307.049C113.035 350.365 235.014 330.849 349.624 289.394C438.37 257.294 523.1 211.883 597.539 171.986L597.542 171.985L597.555 171.978C619.385 160.278 640.331 149.052 660.233 138.775C704.235 116.055 743.013 98.0359 775.121 89.5546C791.153 85.3197 805.323 83.519 817.537 84.6026C829.668 85.6788 840.008 89.6096 848.469 97.0593C865.579 112.123 875.203 141.736 874.987 191.648C874.772 241.339 864.822 310.674 843.475 404.724C830.311 417.723 817.158 430.013 804.026 441.631ZM-84.1279 484.969C-77.822 479.796 -69.3958 474.819 -57.9697 473.287C-57.4483 476.022 -56.9849 478.817 -56.5876 481.672C-57.8999 482.221 -59.155 482.813 -60.3551 483.438C-67.0034 486.901 -71.9332 491.373 -75.5888 495.01C-76.4434 495.86 -77.1938 496.629 -77.8798 497.332L-77.8816 497.334L-77.8837 497.336L-77.8909 497.343C-78.73 498.203 -79.4734 498.965 -80.1926 499.656C-80.7278 500.17 -81.1826 500.578 -81.5728 500.889C-81.9727 500.01 -82.3924 498.519 -82.8009 496.156C-83.2713 493.436 -83.6965 489.775 -84.1279 484.969ZM-75.7227 498.441C-71.4738 494.091 -65.3755 487.848 -56.3034 483.817C-55.9039 486.985 -55.5869 490.227 -55.3633 493.546C-55.3151 494.261 -55.2675 494.964 -55.2204 495.652C-57.1363 496.367 -58.9349 497.179 -60.6226 498.058C-67.1429 501.453 -71.9766 505.835 -75.5587 509.397C-76.4019 510.235 -77.1409 510.992 -77.8159 511.683C-78.6371 512.524 -79.3636 513.268 -80.0679 513.945C-80.5638 514.421 -80.9884 514.803 -81.355 515.1C-81.736 514.236 -82.1365 512.795 -82.527 510.537C-82.8851 508.467 -83.2165 505.84 -83.5447 502.561C-81.8953 504.76 -79.5652 502.375 -75.7227 498.441ZM846.357 403.848C851.777 398.721 857.201 393.479 862.626 388.119C884.415 292.045 894.572 221.216 894.79 170.453C895.008 119.469 885.183 89.2047 867.702 73.805C859.054 66.1871 848.487 62.1669 836.089 61.0659C823.609 59.9577 809.135 61.7984 792.764 66.1247C759.978 74.7887 720.387 93.1957 675.467 116.402C655.146 126.901 633.76 138.369 611.47 150.321L611.464 150.325C535.473 191.075 448.982 237.455 358.391 270.238C241.393 312.577 116.883 332.501 -1.47087 288.252C-55.6717 295.422 -88.2651 302.543 -106.751 310.928C-115.967 315.108 -121.485 319.519 -124.498 324.28C-127.514 329.046 -128.175 334.404 -127.09 340.679C-126.96 341.435 -126.804 342.202 -126.625 342.981C-118.094 326.789 -85.3373 315.887 -2.4162 304.966C201.697 381.722 425.219 261.927 595.921 170.44C810.089 55.6585 941.114 -14.5638 846.357 403.848ZM-126.376 352.546C-126.419 354.383 -126.255 356.307 -125.905 358.329C-124.839 364.492 -122.077 371.423 -118.383 379.389C-116.746 382.92 -114.938 386.627 -113.029 390.544L-112.306 392.027C-110.132 396.489 -107.845 401.21 -105.56 406.203C-99.8047 418.777 -94.0538 433.088 -90.0735 449.484C-94.9666 418.424 -106.861 394.015 -116.445 374.348C-120.348 366.337 -123.869 359.112 -126.376 352.546ZM44.5772 542.7C44.5772 542.7 44.5736 542.697 44.5669 542.689C44.5738 542.696 44.5772 542.7 44.5772 542.7ZM110.241 538.051C110.241 538.051 110.236 538.046 110.227 538.034C110.237 538.045 110.241 538.051 110.241 538.051ZM76.3208 581.237C76.3208 581.237 76.3156 581.232 76.3067 581.219C76.3166 581.23 76.3208 581.237 76.3208 581.237ZM144.327 570.975C144.333 570.983 144.337 570.989 144.339 570.992C144.341 570.994 144.342 570.995 144.342 570.995C144.342 570.995 144.337 570.987 144.327 570.975Z" fill="white"/>
</mask>
<g mask="url(#mask0_209_910)">
<rect width="964.853" height="510.351" transform="matrix(0.996569 -0.0827643 0.0836146 0.996498 -128.533 -80.231)" fill="white"/>
</g>
</svg>
