<svg width="390" height="112" viewBox="0 0 390 112" fill="none" xmlns="http://www.w3.org/2000/svg">
<path fill-rule="evenodd" clip-rule="evenodd" d="M0.3653 14.78C-0.163797 13.8727 -0.0976595 0.960953 0.431437 0.0536414C0.563711 -0.225531 2.41555 0.611987 4.4658 1.93806C13.5927 7.73089 21.3969 8.91738 35.7486 6.75379C40.7089 5.98606 46.1983 5.6371 50.1665 5.84648C55.8543 6.05586 57.0448 6.33503 60.2193 8.21944C64.2537 10.5924 67.5605 15.0592 68.9494 19.8749C70.4044 24.8302 70.0076 37.9513 68.2219 44.4421C63.7907 61.1227 56.6479 69.2187 46.3306 69.2187C39.6507 69.2187 36.1454 67.6134 30.9868 62.2394C28.0767 59.3081 26.4894 58.0518 26.4894 58.8195C26.4894 62.6581 31.2513 82.8284 34.6904 93.5067L36.2777 98.3224L20.2726 103.417C11.5425 106.209 3.87056 108.652 3.27533 108.791C2.48169 109.001 2.08486 108.512 1.75418 106.907C1.09281 103.348 1.82032 101.742 4.86262 100.207C6.31763 99.5089 8.16947 98.0433 8.83084 97.0662C10.0874 95.2515 10.0874 94.9026 8.89698 79.9668C7.17742 57.1445 7.57424 23.3646 9.69062 16.1061C9.95517 15.129 9.42608 14.9894 5.45785 15.3383C2.21714 15.5477 0.695985 15.4081 0.3653 14.78ZM60.6823 30.6231C59.4918 27.7615 56.5818 25.4584 52.4813 24.1323C48.7115 22.9458 38.328 22.9458 34.7566 24.1323C30.3254 25.5979 26.4894 27.9709 23.5794 31.1116C18.3546 36.5555 19.0821 39.9753 26.1588 43.7442C29.9286 45.6984 30.5238 45.838 38.0634 45.838C44.8094 45.838 46.5951 45.5588 49.8358 44.1629C54.8622 42.0691 58.9627 38.7191 60.4177 35.5784C61.4759 33.2752 61.4759 32.7866 60.6823 30.6231ZM196.753 10.2927C199.19 7.30521 205.316 3.55347 209.334 2.51131C210.783 2.16393 215.328 1.88602 219.543 1.81655C228.436 1.74707 233.771 3.06713 238.975 6.81887C244.903 10.9875 247.801 17.9352 246.55 25.0913C245.364 31.8305 241.741 34.4011 233.639 34.4011C225.076 34.4011 220.202 32.1779 217.962 27.3145C215.591 22.2427 218.424 17.3099 225.472 14.0445C229.555 12.1686 230.478 10.779 228.831 9.18108C226.987 7.44416 224.22 6.61044 220.004 6.61044C215.196 6.61044 212.034 8.06946 210.256 11.1264C208.543 14.1139 208.609 17.3099 210.585 26.6197C212.627 36.1381 213.154 37.736 215.394 40.2372C218.424 43.6416 220.465 44.1279 231.466 44.1279C239.897 44.1279 242.005 44.4058 244.244 45.448C249.382 47.8796 251.358 52.882 251.226 63.234C251.095 77.3378 248.131 86.9256 241.939 92.9701C234.891 99.7788 227.25 102.488 214.867 102.488C203.142 102.488 197.148 100.404 190.758 94.0122C185.028 88.3151 182.854 80.8811 184.83 73.7945C186.938 66.0826 192.339 62.8866 203.339 62.8866C213.879 62.8866 218.819 66.9163 217.897 74.9061C217.304 80.6727 214.735 84.216 208.28 88.3151C205.184 90.2605 202.615 92.4142 202.483 93.0395C202.154 94.707 204.986 95.5407 210.849 95.5407C217.172 95.5407 221.454 94.0817 224.747 90.7468C228.567 86.9256 228.897 84.4244 227.382 73.6555C225.274 58.5096 224.945 57.3285 221.717 53.9936L218.885 50.9366L208.411 51.423C198.663 51.9093 197.806 51.8398 195.303 50.5198C191.022 48.1575 189.507 44.1974 189.573 35.4433C189.705 24.466 192.142 15.9898 196.753 10.2927ZM322.173 4.69292L322.37 8.40875L325.316 9.32018L325.372 9.33764C326.829 9.78607 327.876 10.1084 328.629 10.7672C330.553 12.4513 330.553 16.334 330.553 30.1429C330.553 52.9987 331.666 67.161 334.874 83.777C335.333 85.9504 335.267 86.0907 333.958 85.3195C333.238 84.8988 331.143 84.5482 329.309 84.5482H325.97V92.2604V99.9023L328.458 98.1496C330.75 96.3968 331.208 96.3267 337.755 96.6773C343.058 96.8876 345.611 97.3784 349.081 98.7806C351.504 99.7621 353.468 100.393 353.468 100.113C353.468 99.8322 352.748 94.4338 351.897 88.0537C349.278 69.4045 349.147 65.4783 350.784 58.6075C353.337 48.091 358.902 37.3642 362.306 36.4528C365.842 35.5413 367.937 40.1686 369.246 51.5965C370.424 62.5337 368.853 83.2863 365.842 95.2751C365.056 98.43 364.663 101.024 364.99 101.375C365.318 101.725 370.359 104.039 376.186 106.493C382.078 108.947 386.661 111.19 386.465 111.4C386.268 111.611 386.661 111.611 387.381 111.4C388.232 111.19 388.887 110.138 389.345 108.316L390 105.581L386.661 103.688C383.584 101.865 383.257 101.445 382.798 98.5703C382.209 94.9245 383.126 80.6922 384.959 64.5669C386.661 50.1943 387.316 28.7407 386.268 20.5378C385.286 12.6154 383.322 5.9549 381.227 3.22061C375.793 -3.65017 364.27 6.02501 355.759 24.6042C353.664 29.0912 351.504 35.1908 350.522 39.2572C349.605 43.1132 348.688 46.4084 348.558 46.6187C347.837 47.3198 348.296 32.5266 349.212 26.1466C349.998 20.3976 352.42 11.2132 354.384 6.656C354.777 5.74457 352.879 5.32391 340.898 3.71138C333.238 2.65973 325.839 1.60808 324.465 1.32764L321.977 0.90698L322.173 4.69292ZM148.362 8.5518C155.096 8.06556 168.891 5.70383 175.102 3.96727L175.344 3.89679C178.992 2.83585 180.362 2.4375 180.875 2.93065C181.184 3.22714 181.184 3.84587 181.183 4.83658L181.183 5.0092C181.183 6.95416 180.594 8.20448 178.371 10.8441C173.271 16.8873 172.16 23.3473 171.572 51.1324C171.179 71.4154 171.702 78.5006 173.925 83.0851C174.971 85.2385 175.364 85.5163 177.652 85.4469C179.025 85.3774 180.79 85.2385 181.509 85.0996C182.752 84.8217 182.817 85.2385 183.013 91.9069L183.209 99.0615L170.918 98.6448C159.542 98.228 157.907 98.3669 148.885 100.034C143.523 101.076 139.012 101.701 138.881 101.562C138.685 101.423 138.751 99.2005 139.012 96.6303C139.47 92.4626 139.666 91.9069 141.235 91.2817C146.008 89.3368 147.185 88.5727 148.165 86.975C150.454 83.2935 153.527 47.5203 152.873 31.6828C152.35 18.0682 151.434 15.8454 147.054 17.6514C144.504 18.6239 143.981 18.1376 142.216 13.1363C140.778 9.24642 141.039 9.1075 148.362 8.5518ZM98.2892 7.21398C86.9899 11.0793 77.4851 24.6431 73.6965 42.3534C72.1678 49.5921 72.1678 66.5996 73.763 74.4006C77.0863 91.0567 85.9264 105.253 94.7665 108.064C96.0958 108.486 99.1533 108.837 101.48 108.837C114.906 108.837 126.471 93.3056 133.583 65.8265C136.906 53.0358 138.236 43.1968 137.77 34.693C136.973 20.0047 132.586 12.5552 122.084 8.26816C117.299 6.30035 102.809 5.66784 98.2892 7.21398ZM115.039 35.7472C119.027 37.7853 123.879 42.7751 125.673 46.6404C127.667 50.9274 127.468 58.3067 125.208 62.8046C122.882 67.5132 116.634 73.9789 112.114 76.3684C108.924 77.9848 107.595 78.2659 102.41 78.2659C95.2317 78.2659 91.8419 76.7901 86.724 71.5191C81.0743 65.7563 79.1468 58.7284 81.1408 51.4897C82.0713 48.1163 83.0019 46.6404 86.6575 42.7751C93.5036 35.5364 97.6245 33.6388 106.066 33.8497C110.519 33.9902 112.447 34.3416 115.039 35.7472ZM255.983 42.3534C259.719 24.6431 269.092 11.0793 280.234 7.21398C284.691 5.66784 298.98 6.30036 303.699 8.26816C314.055 12.5552 318.38 20.0047 319.167 34.693C319.626 43.1968 318.315 53.0358 315.038 65.8266C308.025 93.3056 296.62 108.837 283.38 108.837C281.086 108.837 278.071 108.486 276.76 108.064C268.043 105.253 259.326 91.0567 256.049 74.4006C254.476 66.5996 254.476 49.5921 255.983 42.3534ZM307.238 46.6404C305.468 42.7751 300.684 37.7853 296.751 35.7472C294.195 34.3416 292.294 33.9902 287.903 33.8497C279.579 33.6388 275.515 35.5364 268.764 42.7751C265.159 46.6404 264.242 48.1163 263.324 51.4897C261.358 58.7284 263.258 65.7563 268.83 71.5191C273.876 76.7901 277.219 78.2659 284.298 78.2659C289.41 78.2659 290.721 77.9848 293.867 76.3684C298.324 73.9789 304.485 67.5132 306.779 62.8046C309.008 58.3067 309.204 50.9274 307.238 46.6404Z" fill="black"/>
</svg>
